<svg xmlns="http://www.w3.org/2000/svg" width="1200" height="630" viewBox="0 0 1200 630" fill="none" role="img" aria-label="RisFolio project synthetic cover">
  <defs>
    <linearGradient id="bg" x1="0" y1="0" x2="1200" y2="630" gradientUnits="userSpaceOnUse">
      <stop stop-color="#0F172A"/>
      <stop offset="1" stop-color="#1E293B"/>
    </linearGradient>
    <linearGradient id="card" x1="260" y1="145" x2="940" y2="485" gradientUnits="userSpaceOnUse">
      <stop stop-color="#0EA5E9" stop-opacity="0.22"/>
      <stop offset="1" stop-color="#8B5CF6" stop-opacity="0.22"/>
    </linearGradient>
  </defs>

  <rect width="1200" height="630" fill="url(#bg)"/>

  <circle cx="130" cy="108" r="210" fill="#22D3EE" fill-opacity="0.12"/>
  <circle cx="1080" cy="560" r="240" fill="#A78BFA" fill-opacity="0.12"/>

  <rect x="260" y="145" width="680" height="340" rx="28" fill="url(#card)" stroke="#38BDF8" stroke-opacity="0.45"/>
  <rect x="315" y="200" width="210" height="14" rx="7" fill="#7DD3FC" fill-opacity="0.75"/>
  <rect x="315" y="236" width="410" height="14" rx="7" fill="#BAE6FD" fill-opacity="0.75"/>

  <rect x="315" y="290" width="570" height="136" rx="16" fill="#0B1220" stroke="#22D3EE" stroke-opacity="0.35"/>
  <circle cx="354" cy="328" r="8" fill="#38BDF8"/>
  <rect x="375" y="322" width="320" height="11" rx="5.5" fill="#67E8F9" fill-opacity="0.72"/>
  <circle cx="354" cy="364" r="8" fill="#A78BFA"/>
  <rect x="375" y="358" width="270" height="11" rx="5.5" fill="#C4B5FD" fill-opacity="0.72"/>
  <circle cx="354" cy="400" r="8" fill="#34D399"/>
  <rect x="375" y="394" width="360" height="11" rx="5.5" fill="#6EE7B7" fill-opacity="0.72"/>

  <text x="600" y="540" text-anchor="middle" fill="#E2E8F0" font-family="Inter,Segoe UI,Arial,sans-serif" font-size="44" font-weight="700">RisFolio</text>
  <text x="600" y="572" text-anchor="middle" fill="#94A3B8" font-family="Inter,Segoe UI,Arial,sans-serif" font-size="22">Portfolio • Next.js • AI Chatbot</text>
</svg>
