<svg width="550" height="550" viewBox="0 0 550 550" fill="none" xmlns="http://www.w3.org/2000/svg">
<path d="M452.178 157.461C451.231 154.857 451.902 151.937 453.954 150.082L490.613 116.028C495.191 111.766 492.191 104.11 485.956 104.11H64.0437C57.8089 104.11 54.8098 111.766 59.3873 116.028L96.0068 150.043C98.0588 151.937 98.7294 154.857 97.7431 157.461L57.8483 240.29C56.5461 242.973 57.1775 246.169 59.3478 248.182L270.265 444.143C272.79 446.472 276.657 446.472 279.183 444.143L490.415 247.787C492.705 245.656 493.374 242.223 491.993 239.421L452.219 157.501L452.178 157.461ZM186.45 188.083L166.128 164.406C162.34 159.987 165.497 153.2 171.298 153.2H211.705C217.506 153.2 220.623 159.987 216.875 164.406L196.552 188.083C193.909 191.161 189.134 191.161 186.45 188.083ZM350.922 316.33H291.929C285.773 316.33 282.813 308.793 287.312 304.61L304.951 288.234H304.872L308.265 285.077C312.804 280.855 309.804 273.279 303.649 273.279H245.681C239.486 273.279 236.526 280.855 241.064 285.077L244.497 288.274H244.418L261.978 304.531C266.516 308.754 263.557 316.37 257.322 316.37H198.447C193.238 316.37 189.883 310.806 192.37 306.189L268.608 164.485C271.212 159.632 278.157 159.632 280.761 164.485L357.038 306.189C359.526 310.806 356.171 316.37 350.962 316.37L350.922 316.33ZM383.202 164.406L362.88 188.083C360.235 191.161 355.459 191.161 352.776 188.083L332.454 164.406C328.667 159.987 331.824 153.2 337.623 153.2H378.031C383.833 153.2 386.949 159.987 383.202 164.406Z" fill="#FF5569"/>
</svg>
